@startuml
'Class definition

ValueColor : value: double
ValueColor : color: Color
ValueColor : label: text

ValueOpacity : value: double
ValueOpacity : opacity: float
ValueOpacity : label: text

AzimuthElevation : azimuth: Angle
AzimuthElevation : elevation: Angle

HillShading : factor: double
HillShading : sun: AzimuthElevation
HillShading : colorMap: ValueColor[*]
HillShading : opacityMap: ValueOpacity[*]

class CoverageSymbolizer <<interface>>
CoverageSymbolizer : colorMap: ValueColor[*]
CoverageSymbolizer : opacityMap: ValueOpacity[*]
CoverageSymbolizer : hillShading: HillShading
CoverageSymbolizer : colorChannels: Color
CoverageSymbolizer : alphaChannel: double
CoverageSymbolizer : singleChannel: double

Color : r: float
Color : g: float
Color : b: float
  
'Relations

'Association

CoverageSymbolizer --> ParameterValue
Symbolizer --> ParameterValue

'Inheritance
CoverageSymbolizer --|> Symbolizer

'Composition

CoverageSymbolizer --* HillShading
CoverageSymbolizer --* ValueOpacity
CoverageSymbolizer --* ValueColor
CoverageSymbolizer --* Color
ValueColor --* Color
HillShading --* AzimuthElevation
HillShading --* ValueColor
HillShading --* ValueOpacity
AzimuthElevation --* Angle
@enduml